HIERARCHY
ROOT Hips
{
	OFFSET 0.000000 0.000000 0.000000
	CHANNELS 6 Xposition Yposition Zposition Zrotation Yrotation Xrotation 
	JOINT LowerBack
	{
		OFFSET 0.000000 0.000000 0.000000
		CHANNELS 3 Zrotation Yrotation Xrotation
		JOINT Spine
		{
			OFFSET 0.028270 2.035590 -0.193380
			CHANNELS 3 Zrotation Yrotation Xrotation
			JOINT Spine1
			{
				OFFSET 0.056720 2.048850 -0.042750
				CHANNELS 3 Zrotation Yrotation Xrotation
				JOINT Neck
				{
					OFFSET 0.000000 0.000000 0.000000
					CHANNELS 3 Zrotation Yrotation Xrotation
					JOINT Neck1
					{
						OFFSET -0.054170 1.746240 0.172020
						CHANNELS 3 Zrotation Yrotation Xrotation
						JOINT Head
						{
							OFFSET 0.104070 1.761360 -0.123970
							CHANNELS 3 Zrotation Yrotation Xrotation
							End Site
							{
								OFFSET 0.000000 0.000000 0.000000
							}
						}
					}
				}
				JOINT LeftShoulder
				{
					OFFSET 0.000000 0.000000 0.000000
					CHANNELS 3 Zrotation Yrotation Xrotation
					JOINT LeftArm
					{
						OFFSET 3.362410 1.200890 -0.311210
						CHANNELS 3 Zrotation Yrotation Xrotation
						JOINT LeftForeArm
						{
							OFFSET 4.983000 -0.000000 -0.000000
							CHANNELS 3 Zrotation Yrotation Xrotation
							JOINT LeftHand
							{
								OFFSET 3.483560 -0.000000 -0.000000
								CHANNELS 3 Zrotation Yrotation Xrotation
								JOINT LeftFingerBase
								{
									OFFSET 0.000000 0.000000 0.000000
									CHANNELS 3 Zrotation Yrotation Xrotation
									JOINT LeftHandIndex1
									{
										OFFSET 0.715260 -0.000000 -0.000000
										CHANNELS 3 Zrotation Yrotation Xrotation
										End Site
										{
											OFFSET 0.000000 0.000000 0.000000
										}
									}
								}
								JOINT LThumb
								{
									OFFSET 0.000000 0.000000 0.000000
									CHANNELS 3 Zrotation Yrotation Xrotation
									End Site
									{
										OFFSET 0.000000 0.000000 0.000000
									}
								}
							}
						}
					}
				}
				JOINT RightShoulder
				{
					OFFSET 0.000000 0.000000 0.000000
					CHANNELS 3 Zrotation Yrotation Xrotation
					JOINT RightArm
					{
						OFFSET -3.136600 1.374050 -0.404650
						CHANNELS 3 Zrotation Yrotation Xrotation
						JOINT RightForeArm
						{
							OFFSET -5.241900 -0.000000 -0.000000
							CHANNELS 3 Zrotation Yrotation Xrotation
							JOINT RightHand
							{
								OFFSET -3.444170 -0.000000 -0.000000
								CHANNELS 3 Zrotation Yrotation Xrotation
								JOINT RightFingerBase
								{
									OFFSET 0.000000 0.000000 0.000000
									CHANNELS 3 Zrotation Yrotation Xrotation
									JOINT RightHandIndex1
									{
										OFFSET -0.622530 -0.000000 -0.000000
										CHANNELS 3 Zrotation Yrotation Xrotation
										End Site
										{
											OFFSET 0.000000 0.000000 0.000000
										}
									}
								}
								JOINT RThumb
								{
									OFFSET 0.000000 0.000000 0.000000
									CHANNELS 3 Zrotation Yrotation Xrotation
									End Site
									{
										OFFSET 0.000000 0.000000 0.000000
									}
								}
							}
						}
					}
				}
			}
		}
	}
}
}
MOTION
Frames: 18
Frame Time: 0.008333
2.850030 16.030030 2.952145 -6.444315 -78.087480 26.758619 3.965502 -3.119986 -2.218304 0.164962 -3.460672 -4.079046 -6.346217 -3.485483 -3.843155 9.455390 -9.734788 -2.480179 -3.420324 -0.310017 1.373046 0.000000 0.000000 0.000000 12.274625 -3.674868 -5.761569 -88.187481 -51.520474 22.639770 179.942951 -61.823203 179.748661 13.631126 -15.292796 -2.059607 -0.278778 1.485726 -0.000000 0.000000 0.000000 0.000000 0.000000 0.000000 0.000000 7.610664 -7.868753 2.158197 59.561089 -2.199005 1.389160 -179.902924 80.550696 179.863226 -18.829026 9.966034 -1.773968 0.245112 -0.577842 -0.000000 0.000000 0.000000 0.000000 0.000000 0.000000 0.000000 
2.827357 16.019772 2.977370 -4.706801 -75.690385 25.350027 3.645888 -3.096163 -2.457348 0.112173 -3.416555 -4.141973 -6.283427 -3.448727 -3.878824 9.467369 -9.753014 -2.518015 -3.387858 -0.307859 1.365213 0.000000 0.000000 0.000000 12.244407 -3.844974 -5.886446 -89.290116 -51.553869 24.349197 179.934257 -62.283557 179.747235 13.773312 -15.181505 -2.067089 -0.285009 1.480281 -0.000000 0.000000 0.000000 0.000000 0.000000 0.000000 0.000000 7.605565 -7.730001 2.362316 58.261816 -3.537384 -0.026139 -179.941575 80.640104 179.866925 -18.867706 10.033619 -1.788339 0.252010 -0.570035 -0.000000 0.000000 0.000000 0.000000 0.000000 0.000000 0.000000 
2.803011 16.015847 3.001218 -3.243850 -73.251510 24.245822 3.264899 -3.073531 -2.702189 0.052089 -3.367822 -4.203781 -6.199171 -3.407937 -3.906406 9.452714 -9.755315 -2.554863 -3.346171 -0.305082 1.357414 0.000000 0.000000 0.000000 12.187720 -4.003542 -6.003208 -90.363539 -51.528017 26.034401 179.922295 -62.742472 179.745519 13.945156 -15.077216 -2.079677 -0.292520 1.474612 -0.000000 0.000000 0.000000 0.000000 0.000000 0.000000 0.000000 7.538256 -7.570492 2.569921 56.910488 -4.831003 -1.508978 -179.978870 80.753244 179.870590 -18.907252 10.107277 -1.804017 0.259133 -0.562572 0.000000 0.000000 0.000000 0.000000 0.000000 0.000000 0.000000 
2.777274 16.018509 3.023457 -1.951081 -70.782575 23.334599 2.821927 -3.054496 -2.938591 -0.015699 -3.316485 -4.260762 -6.093727 -3.364806 -3.921935 9.409653 -9.738628 -2.592370 -3.294914 -0.301612 1.348929 0.000000 0.000000 0.000000 12.091392 -4.140613 -6.108981 -91.387755 -51.468176 27.698823 179.908691 -63.204083 179.743744 14.133516 -14.977891 -2.095180 -0.300893 1.468532 -0.000000 0.000000 0.000000 0.000000 0.000000 0.000000 0.000000 7.411955 -7.388438 2.782128 55.509370 -6.068942 -3.049036 179.985807 80.937531 179.874279 -18.943435 10.162375 -1.816104 0.266250 -0.554854 -0.000000 0.000000 0.000000 0.000000 0.000000 0.000000 0.000000 
2.750250 16.027812 3.044182 -0.779118 -68.292686 22.566525 2.321584 -3.039228 -3.161466 -0.090164 -3.262864 -4.311622 -5.965587 -3.319516 -3.923897 9.335185 -9.703617 -2.631814 -3.234070 -0.297414 1.339308 0.000000 0.000000 0.000000 11.950158 -4.252933 -6.203500 -92.359061 -51.384026 29.341293 179.894339 -63.671217 179.742122 14.325507 -14.882044 -2.111197 -0.309653 1.461897 -0.000000 0.000000 0.000000 0.000000 0.000000 0.000000 0.000000 7.228814 -7.185424 3.000494 54.049637 -7.249826 -4.622201 179.953301 81.230377 179.878002 -18.978659 10.174613 -1.820801 0.273376 -0.546362 -0.000000 0.000000 0.000000 0.000000 0.000000 0.000000 0.000000 
2.721659 16.043451 3.064002 0.279980 -65.791743 21.946542 1.777753 -3.024156 -3.379185 -0.168188 -3.204415 -4.358592 -5.811908 -3.269609 -3.914110 9.229493 -9.651716 -2.674153 -3.165404 -0.292598 1.328372 0.000000 0.000000 0.000000 11.770637 -4.340605 -6.288674 -93.295582 -51.266310 30.959035 179.879238 -64.145842 179.740675 14.519004 -14.792768 -2.128018 -0.318618 1.454805 -0.000000 0.000000 0.000000 0.000000 0.000000 0.000000 0.000000 7.002245 -6.963484 3.226615 52.490003 -8.391166 -6.181778 179.924060 81.646336 179.881727 -19.031552 10.119211 -1.815407 0.281108 -0.536576 -0.000000 0.000000 0.000000 0.000000 0.000000 0.000000 0.000000 
2.691779 16.065287 3.082616 1.276030 -63.293632 21.420638 1.188200 -3.011597 -3.581288 -0.250722 -3.143198 -4.398383 -5.634110 -3.216744 -3.888036 9.086904 -9.587298 -2.722440 -3.088413 -0.287070 1.315017 0.000000 0.000000 0.000000 11.545218 -4.395697 -6.363500 -94.173720 -51.139750 32.547188 179.865090 -64.620819 179.739771 14.690443 -14.704517 -2.141156 -0.327025 1.447049 -0.000000 0.000000 0.000000 0.000000 0.000000 0.000000 0.000000 6.726192 -6.727845 3.460187 50.853766 -9.476728 -7.708852 179.900153 82.227441 179.885456 -19.085071 9.989567 -1.796924 0.288890 -0.525464 -0.000000 0.000000 0.000000 0.000000 0.000000 0.000000 0.000000 
2.660767 16.092888 3.100131 2.223870 -60.813252 20.976770 0.559202 -3.000512 -3.767196 -0.336768 -3.078698 -4.430455 -5.432312 -3.160212 -3.844363 8.903094 -9.514657 -2.778834 -3.003280 -0.280809 1.298575 0.000000 0.000000 0.000000 11.275384 -4.414246 -6.428414 -94.986085 -51.012582 34.094615 179.851628 -65.090612 179.739463 14.834700 -14.611956 -2.149408 -0.334616 1.438442 -0.000000 0.000000 0.000000 0.000000 0.000000 0.000000 0.000000 6.397846 -6.482925 3.700710 49.143763 -10.502106 -9.172547 179.883377 82.996371 179.889170 -19.132560 9.791190 -1.765750 0.296560 -0.513205 -0.000000 0.000000 0.000000 0.000000 0.000000 0.000000 0.000000 
2.628777 16.125690 3.116766 3.126407 -58.367777 20.617560 -0.104298 -2.988149 -3.939866 -0.425932 -3.008638 -4.455937 -5.207679 -3.097705 -3.786250 8.683459 -9.437125 -2.843370 -2.912961 -0.274012 1.279035 0.000000 0.000000 0.000000 10.978924 -4.399926 -6.486347 -95.740705 -50.879998 35.588833 179.838105 -65.549068 179.739833 14.940504 -14.525453 -2.152474 -0.340751 1.429388 -0.000000 0.000000 0.000000 0.000000 0.000000 0.000000 0.000000 6.037477 -6.233404 3.947279 47.328479 -11.473365 -10.522697 179.875046 83.951839 179.892758 -19.192600 9.516739 -1.722182 0.304627 -0.499755 -0.000000 0.000000 0.000000 0.000000 0.000000 0.000000 0.000000 
2.596228 16.163153 3.132298 4.004258 -55.975891 20.316465 -0.797164 -2.974966 -4.091033 -0.517752 -2.933997 -4.472201 -4.961813 -3.029884 -3.710435 8.417014 -9.355894 -2.916867 -2.815175 -0.266497 1.256008 0.000000 0.000000 0.000000 10.647794 -4.346183 -6.535540 -96.408566 -50.764574 37.008965 179.824132 -65.983927 179.740917 15.003420 -14.435628 -2.148461 -0.345192 1.419543 -0.000000 0.000000 0.000000 0.000000 0.000000 0.000000 0.000000 5.619551 -5.979900 4.197858 45.453779 -12.365409 -11.755794 179.878008 85.125147 179.896226 -19.236195 9.202788 -1.669923 0.312251 -0.485931 -0.000000 0.000000 0.000000 0.000000 0.000000 0.000000 0.000000 
2.563511 16.204618 3.146732 4.857752 -53.657661 20.069302 -1.512400 -2.958803 -4.218160 -0.611565 -2.853376 -4.479038 -4.696859 -2.955289 -3.619292 8.104019 -9.269707 -2.997328 -2.710564 -0.258326 1.230037 0.000000 0.000000 0.000000 10.290036 -4.255477 -6.576412 -96.982637 -50.671551 38.336204 179.808455 -66.390587 179.742658 15.021771 -14.347431 -2.137969 -0.347593 1.409048 -0.000000 0.000000 0.000000 0.000000 0.000000 0.000000 0.000000 5.144840 -5.721358 4.450312 43.520354 -13.168211 -12.848733 179.894283 86.521365 179.899558 -19.266772 8.870099 -1.612969 0.319476 -0.472193 -0.000000 0.000000 0.000000 0.000000 0.000000 0.000000 0.000000 
2.531091 16.249423 3.160000 5.687482 -51.433539 19.867743 -2.241177 -2.937479 -4.316816 -0.706338 -2.765570 -4.475805 -4.415061 -2.872655 -3.514895 7.742745 -9.173841 -3.081439 -2.598895 -0.249519 1.202036 0.000000 0.000000 0.000000 9.907849 -4.128819 -6.608565 -97.451753 -50.610146 39.551002 179.789659 -66.762914 179.744920 14.999374 -14.263491 -2.121901 -0.347815 1.397973 -0.000000 0.000000 0.000000 0.000000 0.000000 0.000000 0.000000 4.606666 -5.453252 4.702051 41.540760 -13.865420 -13.793387 179.925943 88.150252 179.902687 -19.283228 8.548224 -1.556720 0.326175 -0.459119 -0.000000 0.000000 0.000000 0.000000 0.000000 0.000000 0.000000 
2.499524 16.296873 3.172011 6.488420 -49.323382 19.704443 -2.972823 -2.908506 -4.382194 -0.800629 -2.669292 -4.462053 -4.118876 -2.780695 -3.400444 7.332598 -9.061118 -3.164664 -2.479920 -0.240118 1.173311 0.000000 0.000000 0.000000 9.501814 -3.968918 -6.631124 -97.807814 -50.587856 40.636071 179.766424 -67.100761 179.747552 14.941506 -14.188029 -2.101857 -0.345739 1.386409 -0.000000 0.000000 0.000000 0.000000 0.000000 0.000000 0.000000 3.999406 -5.168448 4.950327 39.524771 -14.439504 -14.587913 -0.025072 89.977695 -0.094387 -19.287691 8.265194 -1.506275 0.332299 -0.447208 -0.000000 0.000000 0.000000 0.000000 0.000000 0.000000 0.000000 
2.469356 16.346291 3.182698 7.253270 -47.345427 19.571450 -3.695370 -2.869132 -4.409939 -0.892681 -2.563153 -4.437559 -3.810879 -2.678065 -3.279592 6.874884 -8.922975 -3.241994 -2.353689 -0.230194 1.145344 0.000000 0.000000 0.000000 9.071114 -3.778088 -6.643208 -98.046481 -50.610523 41.578054 179.737495 -67.406231 179.750361 14.857082 -14.124771 -2.079536 -0.341419 1.374445 -0.000000 0.000000 0.000000 0.000000 0.000000 0.000000 0.000000 3.320868 -4.858910 5.192099 37.477328 -14.872861 -15.235433 0.042876 87.850866 -0.091658 -19.285227 8.044477 -1.466433 0.337865 -0.436824 -0.000000 0.000000 0.000000 0.000000 0.000000 0.000000 0.000000 
2.440912 16.396879 3.192089 7.973897 -45.514979 19.462081 -4.394033 -2.817183 -4.398466 -0.979913 -2.446562 -4.402748 -3.493236 -2.564272 -3.155752 6.369268 -8.746976 -3.307557 -2.220053 -0.219830 1.119927 0.000000 0.000000 0.000000 8.610538 -3.557283 -6.643517 -98.166174 -50.682787 42.368572 179.702571 -67.680687 179.753232 14.751140 -14.074773 -2.055736 -0.334903 1.362137 -0.000000 0.000000 0.000000 0.000000 0.000000 0.000000 0.000000 2.565620 -4.512998 5.424112 35.408484 -15.148301 -15.751919 0.131105 85.452563 -0.089082 -19.274009 7.906484 -1.440497 0.342794 -0.428280 -0.000000 0.000000 0.000000 0.000000 0.000000 0.000000 0.000000 
2.414816 16.448318 3.200035 8.636759 -43.851285 19.374974 -5.058658 -2.747281 -4.346763 -1.061103 -2.315403 -4.358071 -3.169712 -2.435283 -3.033175 5.827932 -8.535741 -3.360148 -2.081673 -0.209241 1.097518 0.000000 0.000000 0.000000 8.125286 -3.308005 -6.633120 -98.180012 -50.799859 43.005159 179.658587 -67.937750 179.755608 14.659346 -14.043863 -2.036553 -0.327120 1.349631 -0.000000 0.000000 0.000000 0.000000 0.000000 0.000000 0.000000 1.758024 -4.136182 5.642938 33.283577 -15.241679 -16.123489 0.240678 82.772164 -0.086697 -19.280579 7.850311 -1.430362 0.347649 -0.421410 -0.000000 0.000000 0.000000 0.000000 0.000000 0.000000 0.000000 
2.391209 16.499685 3.206717 9.234753 -42.360000 19.301208 -5.673572 -2.659772 -4.257296 -1.133157 -2.171560 -4.304852 -2.842508 -2.293139 -2.914377 5.248643 -8.272905 -3.393778 -1.938637 -0.198541 1.080055 0.000000 0.000000 0.000000 7.605927 -3.028785 -6.610370 -98.089966 -50.963522 43.489465 179.607883 -68.176600 179.757682 14.568817 -14.027922 -2.019381 -0.317796 1.336920 -0.000000 0.000000 0.000000 0.000000 0.000000 0.000000 0.000000 0.890948 -3.713515 5.844714 31.122433 -15.138730 -16.386381 0.372009 79.785763 -0.084403 -19.284160 7.883833 -1.436034 0.352111 -0.416432 -0.000000 0.000000 0.000000 0.000000 0.000000 0.000000 0.000000 
2.370271 16.550490 3.212218 9.758986 -41.050648 19.239982 -6.228541 -2.552014 -4.135003 -1.194510 -2.013439 -4.244680 -2.515273 -2.136378 -2.801790 4.639998 -7.958609 -3.408067 -1.793637 -0.187951 1.067866 0.000000 0.000000 0.000000 7.053884 -2.717435 -6.576048 -97.910725 -51.166786 43.828338 179.549978 -68.404547 179.759196 14.498730 -14.025941 -2.006816 -0.307622 1.324054 -0.000000 0.000000 0.000000 0.000000 0.000000 0.000000 0.000000 -0.015912 -3.248325 6.025521 28.906217 -14.819114 -16.548649 0.524985 76.477426 -0.082184 -19.286790 7.996487 -1.455611 0.356459 -0.413211 -0.000000 0.000000 0.000000 0.000000 0.000000 0.000000 0.000000 
